<?xml version="1.0" encoding="UTF-8" standalone="no"?>
<svg width="60px" height="60px" viewBox="0 0 60 60" version="1.1" xmlns="http://www.w3.org/2000/svg" xmlns:xlink="http://www.w3.org/1999/xlink" xmlns:sketch="http://www.bohemiancoding.com/sketch/ns">
    <!-- Generator: Sketch 3.2.2 (9983) - http://www.bohemiancoding.com/sketch -->
    <title>Babyfood</title>
    <desc>Created with Sketch.</desc>
    <defs></defs>
    <g id="stroked" stroke="none" stroke-width="1" fill="none" fill-rule="evenodd" sketch:type="MSPage">
        <g id="Care" sketch:type="MSLayerGroup" transform="translate(-358.000000, -842.000000)" stroke="#83aae5" stroke-width="2" stroke-linejoin="round">
            <g id="Babyfood" transform="translate(377.000000, 844.000000)" sketch:type="MSShapeGroup">
                <rect id="Rectangle-1389" stroke-linecap="round" x="0" y="20" width="26" height="37" rx="4"></rect>
                <path d="M1,26 L8,26" id="Line" stroke-linecap="square"></path>
                <path d="M1,31 L5,31" id="Line" stroke-linecap="square"></path>
                <path d="M1,36 L8,36" id="Line-291" stroke-linecap="square"></path>
                <path d="M1,41 L5,41" id="Line-290" stroke-linecap="square"></path>
                <path d="M1,46 L8,46" id="Line-293" stroke-linecap="square"></path>
                <path d="M1,51 L5,51" id="Line-292" stroke-linecap="square"></path>
                <path d="M11,7.46487122 L11,10.1813762 C5.87976392,11.1218889 2,15.6078607 2,21 L24,21 C24,15.6078607 20.1202361,11.1218889 15,10.1813762 L15,10.1813762 L15,7.46487122 C16.1956027,6.77325238 17,5.48056471 17,4 C17,1.790861 15.209139,0 13,0 C10.790861,0 9,1.790861 9,4 C9,5.48056471 9.80439726,6.77325238 11,7.46487122 Z" id="Oval-1090" stroke-linecap="round"></path>
            </g>
        </g>
    </g>
</svg>