<?xml version="1.0" encoding="UTF-8" standalone="no"?>
<svg width="60px" height="60px" viewBox="0 0 60 60" version="1.1" xmlns="http://www.w3.org/2000/svg" xmlns:xlink="http://www.w3.org/1999/xlink" xmlns:sketch="http://www.bohemiancoding.com/sketch/ns">
    <!-- Generator: Sketch 3.2.2 (9983) - http://www.bohemiancoding.com/sketch -->
    <title>iBooks</title>
    <desc>Created with Sketch.</desc>
    <defs></defs>
    <g id="stroked" stroke="none" stroke-width="1" fill="none" fill-rule="evenodd" sketch:type="MSPage">
        <g id="Brands" sketch:type="MSLayerGroup" transform="translate(-477.000000, -716.000000)" stroke="#83aae5" stroke-width="2" stroke-linecap="round" stroke-linejoin="round">
            <g id="iBooks" transform="translate(480.000000, 722.000000)" sketch:type="MSShapeGroup">
                <path d="M24.8734128,42 L25,42 L25,7 C25,3.13400675 19.4035594,0 12.5,0 C5.59644063,0 0,3.13400675 0,7 L0,42 L0.126587247,42 C0.993068784,38.6077059 6.20272873,36 12.5,36 C18.7972713,36 24.0069312,38.6077059 24.8734128,42 Z" id="Rectangle-2720"></path>
                <path d="M53.8734128,42 L54,42 L54,7 C54,3.13400675 48.4035594,0 41.5,0 C34.5964406,0 29,3.13400675 29,7 L29,42 L29.1265872,42 C29.9930688,38.6077059 35.2027287,36 41.5,36 C47.7972713,36 53.0069312,38.6077059 53.8734128,42 Z" id="Rectangle-2720"></path>
            </g>
        </g>
    </g>
</svg>