<?xml version="1.0" encoding="UTF-8" standalone="no"?>
<svg width="60px" height="60px" viewBox="0 0 60 60" version="1.1" xmlns="http://www.w3.org/2000/svg" xmlns:xlink="http://www.w3.org/1999/xlink" xmlns:sketch="http://www.bohemiancoding.com/sketch/ns">
    <!-- Generator: Sketch 3.2.2 (9983) - http://www.bohemiancoding.com/sketch -->
    <title>Babyhead</title>
    <desc>Created with Sketch.</desc>
    <defs></defs>
    <g id="stroked" stroke="none" stroke-width="1" fill="none" fill-rule="evenodd" sketch:type="MSPage">
        <g id="Care" sketch:type="MSLayerGroup" transform="translate(2.000000, -962.000000)" stroke="#83aae5" stroke-width="2" stroke-linecap="round" stroke-linejoin="round">
            <g id="Babyhead" transform="translate(2.000000, 967.000000)" sketch:type="MSShapeGroup">
                <path d="M4.47556554,38.5309729 C7.70924571,46.9914452 15.9029363,53 25.5,53 C35.0970637,53 43.2907543,46.9914452 46.5244345,38.5309729 L46.5244345,38.5309729 C49.1429306,37.5181523 51,34.9759471 51,32 C51,29.4263674 49.6111004,27.1771296 47.5419532,25.9609388 C45.4421689,15.7103249 36.3715059,8 25.5,8 C14.6284941,8 5.5578311,15.7103249 3.45804675,25.9609388 C1.3888996,27.1771296 0,29.4263674 0,32 C0,34.9759471 1.85706945,37.5181523 4.47556554,38.5309729 Z" id="Oval-1102"></path>
                <path d="M23.463465,8.02765669 C23.463465,8.02765669 23.7532132,1.88407535 15.5775712,0.287783783" id="Path-2679"></path>
                <path d="M23.3625501,7.06284835 C23.3625501,7.06284835 24.1813378,4.30679935 29.0711268,2.71050773" id="Path-2680"></path>
                <path d="M25,48.6021156 C29.418278,48.6021156 33,44.5923433 33,40.1740654 C33,35.7557874 29.418278,35 25,35 C20.581722,35 17,35.7557874 17,40.1740654 C17,44.5923433 20.581722,48.6021156 25,48.6021156 Z" id="Oval-1103"></path>
                <circle id="Oval-1104" cx="25" cy="42" r="3"></circle>
                <path d="M37,28 C37,25.790861 35.209139,24 33,24 C30.790861,24 29,25.790861 29,28" id="Oval-1105"></path>
                <path d="M22,28 C22,25.790861 20.209139,24 18,24 C15.790861,24 14,25.790861 14,28" id="Oval-1105"></path>
            </g>
        </g>
    </g>
</svg>